<?xml version="1.0" encoding="UTF-8" standalone="no"?><!DOCTYPE svg PUBLIC "-//W3C//DTD SVG 1.1//EN" "http://www.w3.org/Graphics/SVG/1.1/DTD/svg11.dtd"><svg width="100%" height="100%" viewBox="0 0 4181 3190" version="1.1" xmlns="http://www.w3.org/2000/svg" xmlns:xlink="http://www.w3.org/1999/xlink" xml:space="preserve" xmlns:serif="http://www.serif.com/" style="fill-rule:evenodd;clip-rule:evenodd;stroke-linecap:round;stroke-linejoin:round;stroke-miterlimit:1.5;"><rect id="Artboard1" x="0" y="0" width="4180.34" height="3189.65" style="fill:#fff;"/><rect x="1575.48" y="1340.53" width="1002.56" height="1127.91" style="fill:#efefef;"/><rect x="251.785" y="1340.53" width="1002.56" height="1127.91" style="fill:#efefef;"/><g transform="matrix(2.08333,0,0,2.08333,183.138,1191.15)"><text x="323.847px" y="130.211px" style="font-family:'Gentona-SemiBold', 'Gentona';font-weight:600;font-size:36px;fill:#063062;">A<tspan x="347.823px 367.875px 384.219px 393.183px 410.571px 430.479px 444.087px " y="130.211px 130.211px 130.211px 130.211px 130.211px 130.211px 130.211px ">bsichts</tspan>-</text><g transform="matrix(36,0,0,36,475.443,166.211)"></g><text x="305.019px" y="166.211px" style="font-family:'Gentona-SemiBold', 'Gentona';font-weight:600;font-size:36px;fill:#063062;">e<tspan x="323.631px 337.599px 356.283px 374.895px 395.019px 414.927px 435.231px 455.211px " y="166.211px 166.211px 166.211px 166.211px 166.211px 166.211px 166.211px 166.211px ">rkennung</tspan></text></g><g transform="matrix(300,0,0,300,462.003,1608.22)"></g><text x="311.703px" y="1608.22px" style="font-family:'Gentona-SemiBold', 'Gentona';font-weight:600;font-size:300px;fill:#063062;">1</text><g transform="matrix(300,0,0,300,1806.66,1608.22)"></g><text x="1647.06px" y="1608.22px" style="font-family:'Gentona-SemiBold', 'Gentona';font-weight:600;font-size:300px;fill:#063062;">2</text><g transform="matrix(75,0,0,75,2516.03,1462.42)"></g><text x="1897.58px" y="1462.42px" style="font-family:'Gentona-SemiBold', 'Gentona';font-weight:600;font-size:75px;fill:#063062;">W<tspan x="1965.31px 1983.46px 2016.61px 2050.66px 2089.43px 2130.98px 2165.03px 2207.41px 2245.8px 2273.03px 2311.8px 2353.28px 2394.76px 2433.61px 2475.08px " y="1462.42px 1462.42px 1462.42px 1462.42px 1462.42px 1462.42px 1462.42px 1462.42px 1462.42px 1462.42px 1462.42px 1462.42px 1462.42px 1462.42px 1462.42px ">issensdatenbank</tspan></text><rect x="2920" y="1340.53" width="1002.56" height="1127.91" style="fill:#efefef;"/><rect x="3152.61" y="1889.25" width="693.464" height="501.351" style="fill:#e6e6e6;"/><path d="M3337.58,2549.85l-89.063,118.75l-89.062,-118.75l178.125,0Z" style="fill:#d3d3d3;"/><path d="M737.818,1089.04l-0,611.391l2510.7,13.792l0,859.376" style="fill:none;stroke:#d3d3d3;stroke-width:39.58px;"/><rect x="487.865" y="1889.25" width="693.464" height="501.351" style="fill:#e6e6e6;"/><rect x="1814.06" y="1889.25" width="693.464" height="501.351" style="fill:#e6e6e6;"/><path d="M2013.65,2543.67l-89.062,118.75l-89.063,-118.75l178.125,0Z" style="fill:#85ff00;"/><path d="M667.707,768.962l-0,1011.3l1256.88,-0l-0,787.158" style="fill:none;stroke:#85ff00;stroke-width:39.58px;"/><path d="M686.895,2549.85l-89.062,118.75l-89.063,-118.75l178.125,0Z" style="fill:#063062;"/><path d="M597.833,449.164l-0,2124.44" style="fill:none;stroke:#063062;stroke-width:39.58px;"/><g><path d="M401.576,178.748l668.347,0c37.312,0 67.604,30.293 67.604,67.604l-0,0l108.411,1.432l-108.411,102.29l-0,31.486c-0,37.312 -30.292,67.604 -67.604,67.604l-668.347,-0c-37.312,-0 -67.604,-30.292 -67.604,-67.604l-0,-135.208c-0,-37.311 30.292,-67.604 67.604,-67.604Z" style="fill:#063062;"/><g transform="matrix(2.08333,0,0,2.08333,-206.729,21.25)"><text x="295.202px" y="130.211px" style="font-family:'Gentona-SemiBold', 'Gentona';font-weight:600;font-size:36px;fill:#fff;">I<tspan x="304.526px 321.914px " y="130.211px 130.211px ">ch</tspan> m<tspan x="379.73px 399.674px 417.062px 436.97px 450.038px " y="130.211px 130.211px 130.211px 130.211px 130.211px ">öchte</tspan> m<tspan x="506.558px 525.314px 534.602px 554.51px 573.122px " y="130.211px 130.211px 130.211px 130.211px 130.211px ">einen</tspan></text><g transform="matrix(36,0,0,36,593.858,166.211)"></g><text x="295.202px" y="166.211px" style="font-family:'Gentona-SemiBold', 'Gentona';font-weight:600;font-size:36px;fill:#fff;">V<tspan x="316.442px 335.054px 349.238px 363.026px 376.058px 394.562px " y="166.211px 166.211px 166.211px 166.211px 166.211px 166.211px ">ertrag</tspan> v<tspan x="441.146px 459.758px 473.726px 482.438px 501.086px 521.066px 541.046px 559.658px 573.59px " y="166.211px 166.211px 166.211px 166.211px 166.211px 166.211px 166.211px 166.211px 166.211px ">erlängern</tspan></text></g></g><g><g><path d="M1181.09,2716.4l-668.347,0c-37.312,0 -67.604,30.293 -67.604,67.604l-0,0l-108.411,1.432l108.411,102.29l-0,31.486c-0,37.312 30.292,67.604 67.604,67.604l668.347,-0c37.312,-0 67.604,-30.292 67.604,-67.604l-0,-135.208c-0,-37.311 -30.292,-67.604 -67.604,-67.604Z" style="fill:#063062;"/><g transform="matrix(2.08333,0,0,2.08333,-97.6097,2558.33)"><text x="295.202px" y="130.211px" style="font-family:'Gentona-SemiBold', 'Gentona';font-weight:600;font-size:36px;fill:#fff;">S<tspan x="314.606px 333.362px 353.486px " y="130.211px 130.211px 130.211px ">ehr</tspan> g<tspan x="395.246px 413.858px 427.79px 447.698px 466.346px " y="130.211px 130.211px 130.211px 130.211px 130.211px ">erne.</tspan> W<tspan x="515.954px " y="130.211px ">i</tspan>r</text><g transform="matrix(36,0,0,36,600.122,166.211)"></g><text x="295.202px" y="166.211px" style="font-family:'Gentona-SemiBold', 'Gentona';font-weight:600;font-size:36px;fill:#fff;">s<tspan x="311.546px 330.158px 350.066px 370.262px 388.874px " y="166.211px 166.211px 166.211px 166.211px 166.211px ">enden</tspan> i<tspan x="425.738px 445.862px 465.77px 484.382px " y="166.211px 166.211px 166.211px 166.211px ">hnen</tspan> d<tspan x="532.298px 550.91px " y="166.211px 166.211px ">en</tspan>...</text></g></g><g><circle cx="245.24" cy="2790.89" r="74.492" style="fill:#d3d3d3;"/><path d="M230.667,2778.24c0,2.263 1.862,4.125 4.125,4.125c2.262,-0 4.124,-1.862 4.124,-4.125c0,-2.263 -1.862,-4.124 -4.124,-4.124c-2.263,-0 -4.125,1.861 -4.125,4.124Zm37.945,-18.147l-46.743,-0c-1.217,-0 -2.2,0.983 -2.2,2.199l-0,45.369c-0,1.217 0.983,2.2 2.2,2.2l46.743,-0c1.217,-0 2.2,-0.983 2.2,-2.2l-0,-45.369c-0,-1.216 -0.983,-2.199 -2.2,-2.199Zm-2.2,45.368l-42.344,0l0,-40.969l42.344,-0l0,40.969Zm-14.848,-27.221c0,2.263 1.862,4.125 4.125,4.125c2.262,-0 4.124,-1.862 4.124,-4.125c0,-2.263 -1.862,-4.124 -4.124,-4.124c-2.263,-0 -4.125,1.861 -4.125,4.124Zm17.199,38.22l-47.046,-0c-1.134,-0 -2.048,0.983 -2.048,2.2l-0,2.474c-0,0.303 0.227,0.55 0.509,0.55l50.118,0c0.282,0 0.509,-0.247 0.509,-0.55l-0,-2.474c0.007,-1.217 -0.907,-2.2 -2.042,-2.2Zm-13.074,-25.847l-20.897,0c-0.303,0 -0.55,0.248 -0.55,0.55l-0,4.125c-0,0.302 0.247,0.55 0.55,0.55l20.897,-0c0.302,-0 0.55,-0.248 0.55,-0.55l-0,-4.125c-0,-0.302 -0.248,-0.55 -0.55,-0.55Z" style="fill:#063062;fill-rule:nonzero;stroke:#063062;stroke-width:1.46px;stroke-linecap:butt;stroke-miterlimit:2;"/></g></g><g><g><path d="M2513.81,2706.81l-668.347,0c-37.312,0 -67.604,30.293 -67.604,67.604l-0,0l-108.411,1.432l108.411,102.29l-0,31.486c-0,37.312 30.292,67.604 67.604,67.604l668.347,0c37.312,0 67.604,-30.292 67.604,-67.604l-0,-135.208c-0,-37.311 -30.292,-67.604 -67.604,-67.604Z" style="fill:#85ff00;"/><g transform="matrix(2.08333,0,0,2.08333,1241.69,2548.74)"><text x="295.202px" y="130.211px" style="font-family:'Gentona-SemiBold', 'Gentona';font-weight:600;font-size:36px;fill:#063062;">D<tspan x="318.386px 327.35px " y="130.211px 130.211px ">ie</tspan> A<tspan x="377.75px 398.054px 418.034px 436.718px 456.41px 472.538px 485.606px 504.218px " y="130.211px 130.211px 130.211px 130.211px 130.211px 130.211px 130.211px 130.211px ">bokosten</tspan> f<tspan x="544.43px " y="130.211px ">ü</tspan>r</text><g transform="matrix(36,0,0,36,617.942,166.211)"></g><text x="295.202px" y="166.211px" style="font-family:'Gentona-SemiBold', 'Gentona';font-weight:600;font-size:36px;fill:#063062;">d<tspan x="315.542px 334.01px " y="166.211px 166.211px ">as</tspan> e<tspan x="376.886px 390.314px 406.442px 419.51px " y="166.211px 166.211px 166.211px 166.211px ">rste</tspan> J<tspan x="462.566px 480.998px 501.122px " y="166.211px 166.211px 166.211px ">ahr</tspan> s<tspan x="539.246px 548.534px 568.442px " y="166.211px 166.211px 166.211px ">ind</tspan>...</text></g></g><g><circle cx="1579.22" cy="2790.89" r="74.492" style="fill:#d3d3d3;"/><path d="M1564.65,2778.24c-0,2.263 1.862,4.125 4.124,4.125c2.263,-0 4.125,-1.862 4.125,-4.125c-0,-2.263 -1.862,-4.124 -4.125,-4.124c-2.262,-0 -4.124,1.861 -4.124,4.124Zm37.944,-18.147l-46.743,-0c-1.217,-0 -2.2,0.983 -2.2,2.199l0,45.369c0,1.217 0.983,2.2 2.2,2.2l46.743,-0c1.217,-0 2.2,-0.983 2.2,-2.2l0,-45.369c0,-1.216 -0.983,-2.199 -2.2,-2.199Zm-2.199,45.368l-42.344,0l-0,-40.969l42.344,-0l-0,40.969Zm-14.848,-27.221c-0,2.263 1.862,4.125 4.124,4.125c2.263,-0 4.125,-1.862 4.125,-4.125c-0,-2.263 -1.862,-4.124 -4.125,-4.124c-2.262,-0 -4.124,1.861 -4.124,4.124Zm17.199,38.22l-47.046,-0c-1.135,-0 -2.049,0.983 -2.049,2.2l0,2.474c0,0.303 0.227,0.55 0.509,0.55l50.119,0c0.281,0 0.508,-0.247 0.508,-0.55l0,-2.474c0.007,-1.217 -0.907,-2.2 -2.041,-2.2Zm-13.075,-25.847l-20.897,0c-0.302,0 -0.55,0.248 -0.55,0.55l0,4.125c0,0.302 0.248,0.55 0.55,0.55l20.897,-0c0.303,-0 0.55,-0.248 0.55,-0.55l0,-4.125c0,-0.302 -0.247,-0.55 -0.55,-0.55Z" style="fill:#063062;fill-rule:nonzero;stroke:#063062;stroke-width:1.46px;stroke-linecap:butt;stroke-miterlimit:2;"/></g></g><g><g><path d="M3848.98,2706.81l-668.347,0c-37.311,0 -67.604,30.293 -67.604,67.604l0,0l-108.411,1.432l108.411,102.29l0,31.486c0,37.312 30.293,67.604 67.604,67.604l668.347,0c37.312,0 67.604,-30.292 67.604,-67.604l0,-135.208c0,-37.311 -30.292,-67.604 -67.604,-67.604Z" style="fill:#d3d3d3;"/><g transform="matrix(2.08333,0,0,2.08333,2589.07,2548.74)"><text x="295.202px" y="130.211px" style="font-family:'Gentona-SemiBold', 'Gentona';font-weight:600;font-size:36px;fill:#063062;">D<tspan x="318.17px 336.638px " y="130.211px 130.211px ">as</tspan> w<tspan x="387.578px 406.334px 415.046px 430.958px " y="130.211px 130.211px 130.211px 130.211px ">eiss</tspan> i<tspan x="464.186px 481.574px " y="130.211px 130.211px ">ch</tspan> n<tspan x="529.382px 538.346px 555.734px 575.642px " y="130.211px 130.211px 130.211px 130.211px ">icht</tspan>.</text><g transform="matrix(36,0,0,36,579.926,166.211)"></g><text x="295.202px" y="166.211px" style="font-family:'Gentona-SemiBold', 'Gentona';font-weight:600;font-size:36px;fill:#063062;">S<tspan x="314.606px 334.586px " y="166.211px 166.211px ">ol</tspan>l e<tspan x="378.65px 387.938px 407.846px " y="166.211px 166.211px 166.211px ">ine</tspan> P<tspan x="455.078px 473.69px 487.118px 503.462px 523.262px " y="166.211px 166.211px 166.211px 166.211px 166.211px ">erson</tspan> ...</text></g></g><g><circle cx="2911.94" cy="2790.89" r="74.492" style="fill:#d3d3d3;"/><path d="M2897.37,2778.24c-0,2.263 1.862,4.125 4.124,4.125c2.263,-0 4.125,-1.862 4.125,-4.125c-0,-2.263 -1.862,-4.124 -4.125,-4.124c-2.262,-0 -4.124,1.861 -4.124,4.124Zm37.944,-18.147l-46.743,-0c-1.217,-0 -2.2,0.983 -2.2,2.199l0,45.369c0,1.217 0.983,2.2 2.2,2.2l46.743,-0c1.217,-0 2.2,-0.983 2.2,-2.2l0,-45.369c0,-1.216 -0.983,-2.199 -2.2,-2.199Zm-2.199,45.368l-42.344,0l-0,-40.969l42.344,-0l-0,40.969Zm-14.848,-27.221c-0,2.263 1.862,4.125 4.124,4.125c2.263,-0 4.125,-1.862 4.125,-4.125c-0,-2.263 -1.862,-4.124 -4.125,-4.124c-2.262,-0 -4.124,1.861 -4.124,4.124Zm17.199,38.22l-47.046,-0c-1.135,-0 -2.049,0.983 -2.049,2.2l0,2.474c0,0.303 0.227,0.55 0.509,0.55l50.119,0c0.281,0 0.508,-0.247 0.508,-0.55l0,-2.474c0.007,-1.217 -0.907,-2.2 -2.041,-2.2Zm-13.075,-25.847l-20.897,0c-0.302,0 -0.55,0.248 -0.55,0.55l0,4.125c0,0.302 0.248,0.55 0.55,0.55l20.897,-0c0.303,-0 0.55,-0.248 0.55,-0.55l0,-4.125c0,-0.302 -0.247,-0.55 -0.55,-0.55Z" style="fill:#063062;fill-rule:nonzero;stroke:#063062;stroke-width:1.46px;stroke-linecap:butt;stroke-miterlimit:2;"/></g></g><g><path d="M401.576,498.546l668.347,0c37.312,0 67.604,30.292 67.604,67.604l-0,0l108.411,1.431l-108.411,102.291l-0,31.486c-0,37.311 -30.292,67.604 -67.604,67.604l-668.347,-0c-37.312,-0 -67.604,-30.293 -67.604,-67.604l-0,-135.208c-0,-37.312 30.292,-67.604 67.604,-67.604Z" style="fill:#85ff00;"/><g transform="matrix(2.08333,0,0,2.08333,-206.729,341.048)"><text x="295.202px" y="130.211px" style="font-family:'Gentona-SemiBold', 'Gentona';font-weight:600;font-size:36px;fill:#063062;">W<tspan x="327.71px 336.674px " y="130.211px 130.211px ">ie</tspan> h<tspan x="383.006px 402.95px 420.338px " y="130.211px 130.211px 130.211px ">och</tspan> s<tspan x="464.402px 473.69px 493.598px " y="130.211px 130.211px 130.211px ">ind</tspan> d<tspan x="542.018px 550.982px " y="130.211px 130.211px ">ie</tspan></text><g transform="matrix(36,0,0,36,561.314,166.211)"></g><text x="295.202px" y="166.211px" style="font-family:'Gentona-SemiBold', 'Gentona';font-weight:600;font-size:36px;fill:#063062;">K<tspan x="316.262px 335.954px 352.082px 365.15px 383.762px " y="166.211px 166.211px 166.211px 166.211px 166.211px ">osten</tspan> p<tspan x="431.642px 445.07px " y="166.211px 166.211px ">ro</tspan> J<tspan x="489.314px 507.746px 527.87px " y="166.211px 166.211px 166.211px ">ahr</tspan>?</text></g></g><g><path d="M401.576,818.627l668.347,-0c37.312,-0 67.604,30.292 67.604,67.604l-0,-0l108.411,1.431l-108.411,102.291l-0,31.486c-0,37.311 -30.292,67.604 -67.604,67.604l-668.347,-0c-37.312,-0 -67.604,-30.293 -67.604,-67.604l-0,-135.208c-0,-37.312 30.292,-67.604 67.604,-67.604Z" style="fill:#d3d3d3;"/><g transform="matrix(2.08333,0,0,2.08333,-206.729,661.129)"><text x="295.202px" y="130.211px" style="font-family:'Gentona-SemiBold', 'Gentona';font-weight:600;font-size:36px;fill:#063062;">W<tspan x="327.71px 336.674px " y="130.211px 130.211px ">ie</tspan> wir<tspan x="413.066px " y="130.211px ">d</tspan> d<tspan x="461.414px 479.882px " y="130.211px 130.211px ">as</tspan></text><g transform="matrix(36,0,0,36,423.614,166.211)"></g><text x="295.202px" y="166.211px" style="font-family:'Gentona-SemiBold', 'Gentona';font-weight:600;font-size:36px;fill:#063062;">W<tspan x="326.558px 345.206px 358.49px 371.558px 390.17px " y="166.211px 166.211px 166.211px 166.211px 166.211px ">etter</tspan>?</text></g></g><g transform="matrix(75,0,0,75,3846.08,1462.42)"></g><text x="3577.05px" y="1462.42px" style="font-family:'Gentona-SemiBold', 'Gentona';font-weight:600;font-size:75px;fill:#063062;">F<tspan x="3613.43px 3651.83px " y="1462.42px 1462.42px ">al</tspan>lb<tspan x="3730.5px 3768.9px 3805.12px " y="1462.42px 1462.42px 1462.42px ">ack</tspan></text><g transform="matrix(2.08333,0,0,2.08333,2709.27,1731.31)"><text x="364.336px" y="125.027px" style="font-family:'Gentona-SemiBold', 'Gentona';font-weight:600;font-size:28px;fill:#063062;">A<tspan x="382.984px 389.76px 399.924px 414.4px 425.236px 440.664px 455px 465.36px 472.164px 486.864px 501.34px " y="125.027px 125.027px 125.027px 125.027px 125.027px 125.027px 125.027px 125.027px 125.027px 125.027px 125.027px ">lternativen</tspan></text><g transform="matrix(28,0,0,28,517.104,153.027)"></g><text x="409.528px" y="153.027px" style="font-family:'Gentona-SemiBold', 'Gentona';font-weight:600;font-size:28px;fill:#063062;">a<tspan x="424.032px 439.516px 455.224px 462.196px 476.7px 486.864px 501.34px " y="153.027px 153.027px 153.027px 153.027px 153.027px 153.027px 153.027px ">nbieten</tspan></text></g><g transform="matrix(2.08333,0,0,2.08333,93.9577,1731.31)"><text x="361.642px" y="125.027px" style="font-family:'Gentona-SemiBold', 'Gentona';font-weight:600;font-size:28px;fill:#063062;">H<tspan x="380.29px 387.514px 402.998px 413.162px 427.638px 438.502px 445.166px 459.81px 475.406px 485.57px " y="125.027px 125.027px 125.027px 125.027px 125.027px 125.027px 125.027px 125.027px 125.027px 125.027px ">interlegte</tspan></text><text x="397.426px" y="153.027px" style="font-family:'Gentona-SemiBold', 'Gentona';font-weight:600;font-size:28px;fill:#063062;">A<tspan x="416.214px 431.698px 442.422px 463.17px 478.57px 489.602px " y="153.027px 153.027px 153.027px 153.027px 153.027px 153.027px ">ntwort</tspan></text><g transform="matrix(28,0,0,28,500.326,181.027)"></g><text x="381.242px" y="181.027px" style="font-family:'Gentona-SemiBold', 'Gentona';font-weight:600;font-size:28px;fill:#063062;">a<tspan x="395.578px 411.258px 424.166px 439.706px 454.294px 470.086px 484.562px " y="181.027px 181.027px 181.027px 181.027px 181.027px 181.027px 181.027px ">usgeben</tspan></text></g><g transform="matrix(2.08333,0,0,2.08333,1410.46,1731.31)"><text x="392.057px" y="125.027px" style="font-family:'Gentona-SemiBold', 'Gentona';font-weight:600;font-size:28px;fill:#063062;">A<tspan x="410.845px 426.329px 437.053px 457.801px 473.201px 484.233px " y="125.027px 125.027px 125.027px 125.027px 125.027px 125.027px ">ntwort</tspan></text><g transform="matrix(28,0,0,28,494.957,153.027)"></g><text x="361.957px" y="153.027px" style="font-family:'Gentona-SemiBold', 'Gentona';font-weight:600;font-size:28px;fill:#063062;">g<tspan x="377.497px 391.973px 407.457px 421.933px 432.825px 439.797px 454.273px 464.717px 479.193px " y="153.027px 153.027px 153.027px 153.027px 153.027px 153.027px 153.027px 153.027px 153.027px ">enerieren</tspan></text></g><g><path d="M1042.43,2160.01l0,23.651l24.282,0l0,-24.119l-24.282,0.468Z" style="fill:#063062;"/><path d="M1042.43,2307.18l0,23.652l24.282,0l0,-24.12l-24.282,0.468Z" style="fill:#063062;"/><path d="M1112.02,2307.18l-0,23.652l24.282,0l-0,-24.12l-24.282,0.468Z" style="fill:#063062;"/><path d="M975.737,2307.18l0,23.652l24.282,0l0,-24.12l-24.282,0.468Z" style="fill:#063062;"/><path d="M1054.57,2181.08l0,48.567" style="fill:none;stroke:#063062;stroke-width:10.42px;"/><path d="M986.951,2229.65l0,77.394" style="fill:none;stroke:#063062;stroke-width:10.42px;"/><path d="M1054.57,2229.65l0,77.394" style="fill:none;stroke:#063062;stroke-width:10.42px;"/><path d="M1124.16,2229.65l-0,77.394" style="fill:none;stroke:#063062;stroke-width:10.42px;"/><path d="M988.396,2229.65l66.178,-0" style="fill:none;stroke:#063062;stroke-width:10.42px;"/><path d="M1054.57,2229.65l69.767,-0" style="fill:none;stroke:#063062;stroke-width:10.42px;"/></g><path d="M2355.97,2172.05l23.132,62.512l62.512,23.132l-62.512,23.132l-23.132,62.512l-23.131,-62.512l-62.513,-23.132l62.513,-23.132l23.131,-62.512Z" style="fill:none;stroke:#063062;stroke-width:10.42px;"/><path d="M3734.15,2150.65c11.151,3.748 18.417,14.244 18.417,28.004c0,8.643 -4.912,16.607 -10.394,22.947c-5.635,6.536 -12.757,12.391 -18.995,16.938l-0.79,0.578c-6.052,4.42 -11.049,8.074 -18.689,8.074c-7.649,0 -12.63,-3.654 -18.681,-8.074l-0.799,-0.578c-6.238,-4.547 -13.36,-10.402 -18.995,-16.93c-5.465,-6.348 -10.394,-14.312 -10.394,-22.955c-0,-13.76 7.266,-24.248 18.417,-28.004c9.519,-3.204 20.584,-1.088 30.452,6.094c9.867,-7.182 20.941,-9.298 30.451,-6.094m-4.062,12.085c-5.542,-1.869 -13.811,-0.662 -22.072,6.936c-2.426,2.229 -6.201,2.229 -8.626,-0c-8.27,-7.598 -16.531,-8.805 -22.072,-6.936c-5.32,1.785 -9.74,6.919 -9.74,15.919c0,3.969 2.422,8.966 7.301,14.627c4.725,5.481 10.98,10.683 16.853,14.958c7.165,5.226 8.864,6.204 11.967,6.204c3.102,-0 4.801,-0.978 11.975,-6.204c5.864,-4.275 12.119,-9.477 16.844,-14.958c4.887,-5.661 7.309,-10.658 7.309,-14.627c0,-9.009 -4.428,-14.134 -9.739,-15.919m-54.572,98.639c15.859,-3.077 32.831,-2.38 46.574,5.813c1.921,1.147 3.74,2.584 5.312,4.351c3.196,3.587 4.844,8.049 4.921,12.519c1.623,-1.045 3.255,-2.209 4.904,-3.459l15.366,-11.601c7.876,-5.79 18.674,-5.79 26.55,0c7.097,5.355 9.936,14.984 4.845,23.134c-3.612,5.797 -9.052,13.811 -14.593,18.944c-5.609,5.185 -13.573,9.545 -19.598,12.46c-7.326,3.535 -15.23,5.482 -22.922,6.731c-15.723,2.55 -32.075,2.15 -47.611,-1.045c-8.012,-1.649 -16.17,-2.483 -24.349,-2.491l-19.208,0c-3.497,0 -6.374,-2.877 -6.374,-6.374c0,-3.497 2.877,-6.374 6.374,-6.374l19.208,0c9.026,0 18.145,0.935 26.924,2.754c14.161,2.905 28.731,3.225 43.005,0.943c7.037,-1.139 13.615,-2.83 19.411,-5.626c5.805,-2.805 12.332,-6.493 16.471,-10.335c4.19,-3.875 8.873,-10.598 12.451,-16.326c1.08,-1.734 0.927,-4.233 -1.717,-6.23c-3.343,-2.363 -7.84,-2.363 -11.184,0l-15.358,11.61c-6.136,4.631 -13.683,9.586 -23.04,11.074c-0.98,0.158 -1.964,0.297 -2.949,0.416c-5.955,0.687 -11.966,0.744 -17.933,0.17c-3.323,-0.23 -5.935,-3.028 -5.935,-6.359c0,-3.497 2.878,-6.374 6.374,-6.374c0.251,-0 0.502,0.015 0.751,0.044c5.337,0.502 10.113,0.391 14.176,-0.025l0.255,-0.026c1.851,-1.149 2.981,-3.179 2.981,-5.358c-0,-1.602 -0.611,-3.145 -1.706,-4.314c-0.677,-0.745 -1.466,-1.382 -2.337,-1.886c-10.038,-5.992 -23.449,-6.986 -37.617,-4.25c-13.838,2.784 -26.957,8.382 -38.542,16.446c-1.078,0.764 -2.367,1.175 -3.689,1.175c-3.498,-0 -6.376,-2.879 -6.376,-6.377c-0,-2.065 1.003,-4.006 2.688,-5.201c13.068,-9.111 27.876,-15.427 43.497,-18.553" style="fill:#063062;stroke:#e6e6e6;stroke-width:2.29px;stroke-linecap:butt;stroke-miterlimit:2;"/><g transform="matrix(300,0,0,300,3163.34,1608.22)"></g><text x="2998.34px" y="1608.22px" style="font-family:'Gentona-SemiBold', 'Gentona';font-weight:600;font-size:300px;fill:#063062;">3</text><g><circle cx="1335.03" cy="893.119" r="74.492" style="fill:#d3d3d3;"/><path d="M1361.84,912.587c-1.46,-3.457 -3.578,-6.598 -6.237,-9.247c-2.65,-2.656 -5.79,-4.774 -9.246,-6.236c-0.031,-0.016 -0.062,-0.023 -0.093,-0.039c4.821,-3.482 7.954,-9.153 7.954,-15.552c0,-10.601 -8.589,-19.19 -19.189,-19.19c-10.601,0 -19.189,8.589 -19.189,19.19c-0,6.399 3.133,12.07 7.954,15.56c-0.031,0.015 -0.062,0.023 -0.093,0.039c-3.466,1.462 -6.577,3.559 -9.246,6.236c-2.657,2.651 -4.775,5.791 -6.237,9.247c-1.437,3.383 -2.212,7.01 -2.283,10.685c0,0.005 0,0.011 0,0.016c0,0.339 0.28,0.619 0.619,0.619c0,-0 4.643,-0 4.643,-0c0.34,-0 0.611,-0.271 0.619,-0.604c0.155,-5.973 2.553,-11.568 6.794,-15.808c4.387,-4.387 10.213,-6.801 16.419,-6.801c6.206,-0 12.032,2.414 16.419,6.801c4.24,4.24 6.639,9.835 6.794,15.808c0.008,0.341 0.278,0.604 0.619,0.604c-0,-0 4.643,-0 4.643,-0c0.339,-0 0.619,-0.28 0.619,-0.619c-0,-0.005 -0,-0.011 -0.001,-0.016c-0.077,-3.698 -0.843,-7.296 -2.282,-10.693Zm-26.811,-17.766c-3.552,0 -6.894,-1.385 -9.409,-3.899c-2.515,-2.515 -3.9,-5.858 -3.9,-9.409c0,-3.552 1.385,-6.895 3.9,-9.409c2.515,-2.515 5.857,-3.9 9.409,-3.9c3.552,-0 6.894,1.385 9.409,3.9c2.515,2.514 3.9,5.857 3.9,9.409c-0,3.551 -1.385,6.894 -3.9,9.409c-2.515,2.514 -5.857,3.899 -9.409,3.899Z" style="fill:#063062;fill-rule:nonzero;"/></g><g><circle cx="1335.03" cy="567.402" r="74.492" style="fill:#d3d3d3;"/><path d="M1361.84,586.869c-1.46,-3.457 -3.578,-6.598 -6.237,-9.246c-2.65,-2.656 -5.79,-4.774 -9.246,-6.237c-0.031,-0.015 -0.062,-0.023 -0.093,-0.038c4.821,-3.482 7.954,-9.154 7.954,-15.553c0,-10.6 -8.589,-19.189 -19.189,-19.189c-10.601,-0 -19.189,8.589 -19.189,19.189c-0,6.399 3.133,12.071 7.954,15.56c-0.031,0.016 -0.062,0.024 -0.093,0.039c-3.466,1.463 -6.577,3.559 -9.246,6.237c-2.657,2.65 -4.775,5.79 -6.237,9.246c-1.437,3.383 -2.212,7.011 -2.283,10.686c0,0.005 0,0.01 0,0.015c0,0.34 0.28,0.619 0.619,0.619c0,0 4.643,0 4.643,0c0.34,0 0.611,-0.271 0.619,-0.603c0.155,-5.974 2.553,-11.568 6.794,-15.808c4.387,-4.387 10.213,-6.802 16.419,-6.802c6.206,0 12.032,2.415 16.419,6.802c4.24,4.24 6.639,9.834 6.794,15.808c0.008,0.34 0.278,0.603 0.619,0.603c-0,0 4.643,0 4.643,0c0.339,0 0.619,-0.279 0.619,-0.619c-0,-0.005 -0,-0.01 -0.001,-0.015c-0.077,-3.699 -0.843,-7.297 -2.282,-10.694Zm-26.811,-17.765c-3.552,-0 -6.894,-1.385 -9.409,-3.9c-2.515,-2.515 -3.9,-5.857 -3.9,-9.409c0,-3.552 1.385,-6.894 3.9,-9.409c2.515,-2.515 5.857,-3.9 9.409,-3.9c3.552,0 6.894,1.385 9.409,3.9c2.515,2.515 3.9,5.857 3.9,9.409c-0,3.552 -1.385,6.894 -3.9,9.409c-2.515,2.515 -5.857,3.9 -9.409,3.9Z" style="fill:#063062;fill-rule:nonzero;"/></g><g><circle cx="1335.03" cy="251.66" r="74.492" style="fill:#d3d3d3;"/><path d="M1361.84,271.128c-1.46,-3.458 -3.578,-6.598 -6.237,-9.247c-2.65,-2.656 -5.79,-4.774 -9.246,-6.236c-0.031,-0.016 -0.062,-0.024 -0.093,-0.039c4.821,-3.482 7.954,-9.154 7.954,-15.553c0,-10.6 -8.589,-19.189 -19.189,-19.189c-10.601,-0 -19.189,8.589 -19.189,19.189c-0,6.399 3.133,12.071 7.954,15.561c-0.031,0.015 -0.062,0.023 -0.093,0.038c-3.466,1.463 -6.577,3.56 -9.246,6.237c-2.657,2.65 -4.775,5.79 -6.237,9.246c-1.437,3.383 -2.212,7.011 -2.283,10.686c0,0.005 0,0.01 0,0.015c0,0.34 0.28,0.619 0.619,0.619c0,0 4.643,0 4.643,0c0.34,0 0.611,-0.27 0.619,-0.603c0.155,-5.974 2.553,-11.568 6.794,-15.808c4.387,-4.387 10.213,-6.801 16.419,-6.801c6.206,-0 12.032,2.414 16.419,6.801c4.24,4.24 6.639,9.834 6.794,15.808c0.008,0.34 0.278,0.603 0.619,0.603c-0,0 4.643,0 4.643,0c0.339,0 0.619,-0.279 0.619,-0.619c-0,-0.005 -0,-0.01 -0.001,-0.015c-0.077,-3.699 -0.843,-7.297 -2.282,-10.693Zm-26.811,-17.766c-3.552,-0 -6.894,-1.385 -9.409,-3.9c-2.515,-2.515 -3.9,-5.857 -3.9,-9.409c0,-3.551 1.385,-6.894 3.9,-9.409c2.515,-2.514 5.857,-3.9 9.409,-3.9c3.552,0 6.894,1.386 9.409,3.9c2.515,2.515 3.9,5.858 3.9,9.409c-0,3.552 -1.385,6.894 -3.9,9.409c-2.515,2.515 -5.857,3.9 -9.409,3.9Z" style="fill:#063062;fill-rule:nonzero;"/></g></svg>